<svg id="visual" viewBox="0 0 900 600" width="900" height="600" xmlns="http://www.w3.org/2000/svg" xmlns:xlink="http://www.w3.org/1999/xlink" version="1.1"><rect x="0" y="0" width="900" height="600" fill="#bfb5ff"></rect><defs><linearGradient id="grad1_0" x1="33.3%" y1="0%" x2="100%" y2="100%"><stop offset="20%" stop-color="#bfb5ff" stop-opacity="1"></stop><stop offset="80%" stop-color="#bfb5ff" stop-opacity="1"></stop></linearGradient></defs><defs><linearGradient id="grad2_0" x1="0%" y1="0%" x2="66.7%" y2="100%"><stop offset="20%" stop-color="#bfb5ff" stop-opacity="1"></stop><stop offset="80%" stop-color="#bfb5ff" stop-opacity="1"></stop></linearGradient></defs><g transform="translate(900, 0)"><path d="M0 486.7C-87.7 475.5 -175.5 464.3 -243.4 421.5C-311.3 378.8 -359.4 304.5 -396.6 229C-433.9 153.5 -460.3 76.7 -486.7 0L0 0Z" fill="#f9faff"></path></g><g transform="translate(0, 600)"><path d="M0 -486.7C92 -478 184 -469.2 243.4 -421.5C302.7 -373.9 329.5 -287.2 364.6 -210.5C399.7 -133.8 443.2 -66.9 486.7 0L0 0Z" fill="#f9faff"></path></g></svg>