<svg id="visual" viewBox="0 0 900 600" width="900" height="600" xmlns="http://www.w3.org/2000/svg" xmlns:xlink="http://www.w3.org/1999/xlink" version="1.1"><rect x="0" y="0" width="900" height="600" fill="#a1d3fc"></rect><defs><linearGradient id="grad1_0" x1="33.3%" y1="0%" x2="100%" y2="100%"><stop offset="20%" stop-color="#f9faff" stop-opacity="1"></stop><stop offset="80%" stop-color="#f9faff" stop-opacity="1"></stop></linearGradient></defs><defs><linearGradient id="grad1_1" x1="33.3%" y1="0%" x2="100%" y2="100%"><stop offset="20%" stop-color="#f9faff" stop-opacity="1"></stop><stop offset="80%" stop-color="#a1d3fc" stop-opacity="1"></stop></linearGradient></defs><defs><linearGradient id="grad2_0" x1="0%" y1="0%" x2="66.7%" y2="100%"><stop offset="20%" stop-color="#f9faff" stop-opacity="1"></stop><stop offset="80%" stop-color="#f9faff" stop-opacity="1"></stop></linearGradient></defs><defs><linearGradient id="grad2_1" x1="0%" y1="0%" x2="66.7%" y2="100%"><stop offset="20%" stop-color="#a1d3fc" stop-opacity="1"></stop><stop offset="80%" stop-color="#f9faff" stop-opacity="1"></stop></linearGradient></defs><g transform="translate(900, 0)"><path d="M0 486.7C-45.3 461.2 -90.5 435.6 -136.9 421.3C-183.3 407.1 -230.8 404.2 -280.4 385.9C-329.9 367.6 -381.5 334 -393.8 286.1C-406.1 238.2 -379.1 176.1 -388 126.1C-397 76 -441.9 38 -486.7 0L0 0Z" fill="#d5e5ff"></path><path d="M0 243.4C-22.6 230.6 -45.3 217.8 -68.4 210.7C-91.6 203.5 -115.4 202.1 -140.2 193C-165 183.8 -190.7 167 -196.9 143.1C-203 119.1 -189.5 88.1 -194 63C-198.5 38 -220.9 19 -243.4 0L0 0Z" fill="#f9faff"></path></g><g transform="translate(0, 600)"><path d="M0 -486.7C43.1 -460 86.3 -433.3 137.5 -423.2C188.8 -413.1 248.1 -419.6 286.1 -393.8C324.1 -367.9 340.7 -309.7 362.4 -263.3C384.2 -217 411.1 -182.5 432.7 -140.6C454.3 -98.7 470.5 -49.3 486.7 0L0 0Z" fill="#d5e5ff"></path><path d="M0 -243.4C21.6 -230 43.1 -216.7 68.8 -211.6C94.4 -206.6 124.1 -209.8 143.1 -196.9C162 -184 170.3 -154.8 181.2 -131.7C192.1 -108.5 205.6 -91.3 216.4 -70.3C227.2 -49.3 235.3 -24.7 243.4 0L0 0Z" fill="#f9faff"></path></g></svg>