<svg id="visual" viewBox="0 0 900 600" width="900" height="600" xmlns="http://www.w3.org/2000/svg" xmlns:xlink="http://www.w3.org/1999/xlink" version="1.1"><rect x="0" y="0" width="900" height="600" fill="#b692ec"></rect><defs><linearGradient id="grad1_0" x1="33.3%" y1="0%" x2="100%" y2="100%"><stop offset="20%" stop-color="#f9faff" stop-opacity="1"></stop><stop offset="80%" stop-color="#f9faff" stop-opacity="1"></stop></linearGradient></defs><defs><linearGradient id="grad1_1" x1="33.3%" y1="0%" x2="100%" y2="100%"><stop offset="20%" stop-color="#f9faff" stop-opacity="1"></stop><stop offset="80%" stop-color="#b692ec" stop-opacity="1"></stop></linearGradient></defs><defs><linearGradient id="grad2_0" x1="0%" y1="0%" x2="66.7%" y2="100%"><stop offset="20%" stop-color="#f9faff" stop-opacity="1"></stop><stop offset="80%" stop-color="#f9faff" stop-opacity="1"></stop></linearGradient></defs><defs><linearGradient id="grad2_1" x1="0%" y1="0%" x2="66.7%" y2="100%"><stop offset="20%" stop-color="#b692ec" stop-opacity="1"></stop><stop offset="80%" stop-color="#f9faff" stop-opacity="1"></stop></linearGradient></defs><g transform="translate(900, 0)"><path d="M0 432.7C-33.7 410.2 -67.4 387.8 -100.4 374.8C-133.5 361.8 -165.9 358.2 -200.5 347.3C-235.1 336.4 -271.7 318.1 -287.8 287.8C-303.9 257.5 -299.4 215.2 -322.2 186C-344.9 156.8 -395 140.8 -417.9 112C-440.9 83.2 -436.8 41.6 -432.7 0L0 0Z" fill="#ccc9fb"></path><path d="M0 216.3C-16.8 205.1 -33.7 193.9 -50.2 187.4C-66.7 180.9 -83 179.1 -100.2 173.6C-117.5 168.2 -135.9 159 -143.9 143.9C-151.9 128.7 -149.7 107.6 -161.1 93C-172.5 78.4 -197.5 70.4 -209 56C-220.4 41.6 -218.4 20.8 -216.3 0L0 0Z" fill="#f9faff"></path></g><g transform="translate(0, 600)"><path d="M0 -432.7C38.8 -428.7 77.7 -424.7 109.7 -409.6C141.8 -394.4 167.1 -368.1 204 -353.3C240.9 -338.5 289.4 -335.3 305.9 -305.9C322.5 -276.6 307.1 -221.3 323 -186.5C338.9 -151.7 386.1 -137.4 409.6 -109.7C433 -82.1 432.9 -41 432.7 0L0 0Z" fill="#ccc9fb"></path><path d="M0 -216.3C19.4 -214.3 38.8 -212.3 54.9 -204.8C70.9 -197.2 83.6 -184.1 102 -176.7C120.4 -169.3 144.7 -167.6 153 -153C161.3 -138.3 153.6 -110.7 161.5 -93.3C169.5 -75.8 193 -68.7 204.8 -54.9C216.5 -41 216.4 -20.5 216.3 0L0 0Z" fill="#f9faff"></path></g></svg>