<svg id="visual" viewBox="0 0 900 600" width="900" height="600" xmlns="http://www.w3.org/2000/svg" xmlns:xlink="http://www.w3.org/1999/xlink" version="1.1"><rect x="0" y="0" width="900" height="600" fill="#6600FF"></rect><defs><linearGradient id="grad1_0" x1="33.3%" y1="0%" x2="100%" y2="100%"><stop offset="20%" stop-color="#f9faff" stop-opacity="1"></stop><stop offset="80%" stop-color="#f9faff" stop-opacity="1"></stop></linearGradient></defs><defs><linearGradient id="grad1_1" x1="33.3%" y1="0%" x2="100%" y2="100%"><stop offset="20%" stop-color="#f9faff" stop-opacity="1"></stop><stop offset="80%" stop-color="#6600ff" stop-opacity="1"></stop></linearGradient></defs><defs><linearGradient id="grad2_0" x1="0%" y1="0%" x2="66.7%" y2="100%"><stop offset="20%" stop-color="#f9faff" stop-opacity="1"></stop><stop offset="80%" stop-color="#f9faff" stop-opacity="1"></stop></linearGradient></defs><defs><linearGradient id="grad2_1" x1="0%" y1="0%" x2="66.7%" y2="100%"><stop offset="20%" stop-color="#6600ff" stop-opacity="1"></stop><stop offset="80%" stop-color="#f9faff" stop-opacity="1"></stop></linearGradient></defs><g transform="translate(900, 0)"><path d="M0 486.7C-41.2 475.7 -82.5 464.6 -120.6 450.1C-158.8 435.7 -193.8 417.9 -230.5 399.2C-267.2 380.6 -305.5 361 -331.6 331.6C-357.8 302.3 -371.9 263.2 -395.8 228.5C-419.7 193.8 -453.4 163.3 -470.2 126C-487 88.6 -486.9 44.3 -486.7 0L0 0Z" fill="#999aff"></path><path d="M0 243.4C-20.6 237.8 -41.2 232.3 -60.3 225.1C-79.4 217.8 -96.9 209 -115.2 199.6C-133.6 190.3 -152.7 180.5 -165.8 165.8C-178.9 151.2 -185.9 131.6 -197.9 114.3C-209.8 96.9 -226.7 81.7 -235.1 63C-243.5 44.3 -243.4 22.2 -243.4 0L0 0Z" fill="#f9faff"></path></g><g transform="translate(0, 600)"><path d="M0 -486.7C37.3 -461.6 74.6 -436.5 113.9 -425C153.2 -413.5 194.6 -415.5 232 -401.8C269.4 -388.1 302.9 -358.7 325.3 -325.3C347.6 -291.8 358.7 -254.4 384.5 -222C410.3 -189.6 450.7 -162.1 470.2 -126C489.6 -89.8 488.2 -44.9 486.7 0L0 0Z" fill="#999aff"></path><path d="M0 -243.4C18.6 -230.8 37.3 -218.3 56.9 -212.5C76.6 -206.7 97.3 -207.8 116 -200.9C134.7 -194.1 151.5 -179.3 162.6 -162.6C173.8 -145.9 179.4 -127.2 192.3 -111C205.1 -94.8 225.3 -81.1 235.1 -63C244.8 -44.9 244.1 -22.5 243.4 0L0 0Z" fill="#f9faff"></path></g></svg>