<svg id="visual" viewBox="0 0 900 600" width="900" height="600" xmlns="http://www.w3.org/2000/svg" xmlns:xlink="http://www.w3.org/1999/xlink" version="1.1"><rect x="0" y="0" width="900" height="600" fill="#c5bcff"></rect><defs><linearGradient id="grad1_0" x1="33.3%" y1="0%" x2="100%" y2="100%"><stop offset="20%" stop-color="#f9faff" stop-opacity="1"></stop><stop offset="80%" stop-color="#f9faff" stop-opacity="1"></stop></linearGradient></defs><defs><linearGradient id="grad1_1" x1="33.3%" y1="0%" x2="100%" y2="100%"><stop offset="20%" stop-color="#f9faff" stop-opacity="1"></stop><stop offset="80%" stop-color="#e4e6ff" stop-opacity="1"></stop></linearGradient></defs><defs><linearGradient id="grad1_2" x1="33.3%" y1="0%" x2="100%" y2="100%"><stop offset="20%" stop-color="#d2d2ff" stop-opacity="1"></stop><stop offset="80%" stop-color="#e4e6ff" stop-opacity="1"></stop></linearGradient></defs><defs><linearGradient id="grad1_3" x1="33.3%" y1="0%" x2="100%" y2="100%"><stop offset="20%" stop-color="#d2d2ff" stop-opacity="1"></stop><stop offset="80%" stop-color="#c5bcff" stop-opacity="1"></stop></linearGradient></defs><defs><linearGradient id="grad2_0" x1="0%" y1="0%" x2="66.7%" y2="100%"><stop offset="20%" stop-color="#f9faff" stop-opacity="1"></stop><stop offset="80%" stop-color="#f9faff" stop-opacity="1"></stop></linearGradient></defs><defs><linearGradient id="grad2_1" x1="0%" y1="0%" x2="66.7%" y2="100%"><stop offset="20%" stop-color="#e4e6ff" stop-opacity="1"></stop><stop offset="80%" stop-color="#f9faff" stop-opacity="1"></stop></linearGradient></defs><defs><linearGradient id="grad2_2" x1="0%" y1="0%" x2="66.7%" y2="100%"><stop offset="20%" stop-color="#e4e6ff" stop-opacity="1"></stop><stop offset="80%" stop-color="#d2d2ff" stop-opacity="1"></stop></linearGradient></defs><defs><linearGradient id="grad2_3" x1="0%" y1="0%" x2="66.7%" y2="100%"><stop offset="20%" stop-color="#c5bcff" stop-opacity="1"></stop><stop offset="80%" stop-color="#d2d2ff" stop-opacity="1"></stop></linearGradient></defs><g transform="translate(900, 0)"><path d="M0 486.7C-41.9 484.2 -83.8 481.7 -126 470.2C-168.1 458.6 -210.6 438 -231.5 401C-252.4 363.9 -251.9 310.4 -285.7 285.7C-319.5 260.9 -387.6 265 -416.6 240.5C-445.5 216 -435.3 162.9 -440.5 118C-445.6 73.2 -466.2 36.6 -486.7 0L0 0Z" fill="#cbc7ff"></path><path d="M0 365.1C-31.4 363.2 -62.9 361.3 -94.5 352.6C-126.1 344 -157.9 328.5 -173.6 300.7C-189.3 272.9 -188.9 232.8 -214.3 214.3C-239.6 195.7 -290.7 198.8 -312.4 180.4C-334.1 162 -326.5 122.2 -330.3 88.5C-334.2 54.9 -349.6 27.4 -365.1 0L0 0Z" fill="#dbdcff"></path><path d="M0 243.4C-21 242.1 -41.9 240.9 -63 235.1C-84.1 229.3 -105.3 219 -115.7 200.5C-126.2 182 -125.9 155.2 -142.8 142.8C-159.7 130.5 -193.8 132.5 -208.3 120.3C-222.8 108 -217.6 81.4 -220.2 59C-222.8 36.6 -233.1 18.3 -243.4 0L0 0Z" fill="#eef0ff"></path><path d="M0 121.7C-10.5 121.1 -21 120.4 -31.5 117.5C-42 114.7 -52.6 109.5 -57.9 100.2C-63.1 91 -63 77.6 -71.4 71.4C-79.9 65.2 -96.9 66.3 -104.1 60.1C-111.4 54 -108.8 40.7 -110.1 29.5C-111.4 18.3 -116.5 9.1 -121.7 0L0 0Z" fill="#f9faff"></path></g><g transform="translate(0, 600)"><path d="M0 -486.7C38.4 -464.9 76.7 -443.1 113.6 -424C150.5 -404.9 186 -388.6 210 -363.7C234 -338.9 246.6 -305.6 289.2 -289.2C331.8 -272.8 404.4 -273.3 421.5 -243.4C438.6 -213.5 400.2 -153.3 401.8 -107.7C403.4 -62.1 445.1 -31 486.7 0L0 0Z" fill="#cbc7ff"></path><path d="M0 -365.1C28.8 -348.7 57.5 -332.4 85.2 -318C112.9 -303.7 139.5 -291.4 157.5 -272.8C175.5 -254.2 185 -229.2 216.9 -216.9C248.9 -204.6 303.3 -204.9 316.2 -182.5C329 -160.1 300.2 -115 301.4 -80.8C302.6 -46.5 333.8 -23.3 365.1 0L0 0Z" fill="#dbdcff"></path><path d="M0 -243.4C19.2 -232.5 38.4 -221.6 56.8 -212C75.3 -202.5 93 -194.3 105 -181.9C117 -169.4 123.3 -152.8 144.6 -144.6C165.9 -136.4 202.2 -136.6 210.8 -121.7C219.3 -106.7 200.1 -76.6 200.9 -53.8C201.7 -31 222.5 -15.5 243.4 0L0 0Z" fill="#eef0ff"></path><path d="M0 -121.7C9.6 -116.2 19.2 -110.8 28.4 -106C37.6 -101.2 46.5 -97.1 52.5 -90.9C58.5 -84.7 61.7 -76.4 72.3 -72.3C83 -68.2 101.1 -68.3 105.4 -60.8C109.7 -53.4 100.1 -38.3 100.5 -26.9C100.9 -15.5 111.3 -7.8 121.7 0L0 0Z" fill="#f9faff"></path></g></svg>